# xmcd
#
# Track frame offsets: 
#        150
#        16370
#        29125
#        41672
#        54332
#        65055
#        78285
#        89327
#        102545
#        111545
#
# Disc length: 1718 seconds
#
# Revision: 0
# Processed by: cddbd v1.5.2PL0 Copyright (c) Steve Scherf et al.
# Submitted via: ExactAudioCopy v0.99pb3
#
DISCID=8a06b40a
DTITLE=Curtis Maloney - Aggie-Culture
DYEAR=2000
DGENRE=Country
TTITLE0=Aggie Culture
TTITLE1=Reveille
TTITLE2=Tom Thumb
TTITLE3=Silver Taps
TTITLE4=The Chicken or the Agg
TTITLE5=Tickled Maroon
TTITLE6=Austin Tea Party
TTITLE7=Aggie Fan
TTITLE8=12th Man
TTITLE9=Put Another Log on the Fire
EXTD=
EXTT0=
EXTT1=
EXTT2=
EXTT3=
EXTT4=
EXTT5=
EXTT6=
EXTT7=
EXTT8=
EXTT9=
PLAYORDER=
